DataType=double
version=3
OpenSimVersion=4.5-2023-11-26-efcdfd3eb
endheader
time	EMG01_right_gast_med	EMG02_right_glut_max	EMG03_left_gast_med	EMG04_left_glut_max	EMG05_right_glut_med	EMG06_right_bic_fem	EMG07_right_rect_fem	EMG08_right_vast_lat	EMG09_right_vast_med	EMG10_right_tens_fasc_lat	EMG11_left_glut_med	EMG12_left_bic_fem	EMG13_left_rect_fem	EMG14_left_vast_lat	EMG15_left_vast_med	EMG16_left_tens_fasc_lat
0.83	0.6277234705130023	-0.009070665134324304	0.02764609747296879	0.05099710283958307	0.04285304257943188	0.05986477289050179	0.04908770069932299	0.01181453785789809	0.001714758728568258	0.04332236574428575	0.09191392586168	0.06596107101783595	0.140609327777944	0.06243900560665656	0.01911245562665887	0.08909442652829311
0.84	0.6301697302743575	-0.009287119194754627	0.03072442173803995	0.04878491264190284	0.04768406916683149	0.05761661878753561	0.05032124585159682	0.01235840189730804	0.001622593847712292	0.0428226612062754	0.09996625916566054	0.06890952707291059	0.1428608796118204	0.06691069987398429	0.02222353162200267	0.08879817041927895
0.85	0.6299459967944713	-0.00863975715670434	0.03341583510742008	0.04686743364608754	0.05316364852194181	0.05541518291750572	0.05162818270310687	0.01299869351183019	0.001782332343997486	0.04296802626280994	0.1082731565546249	0.07170465916823397	0.1452168888996751	0.07143932908293217	0.02558852155460201	0.08916079739337335
0.86	0.6269918990122511	-0.007114606284834825	0.03570697323114019	0.0452463362800938	0.05926090889828655	0.05326173666569841	0.05298902665393863	0.01372949243295227	0.002175358920003217	0.04373169880836562	0.1167816398762584	0.07432595318263509	0.14765952642964	0.0759863918816779	0.02918723586866133	0.09024590927336108
0.87	0.6212800587706134	-0.004703861458938996	0.0375912816263876	0.04391954654846134	0.06593587032440633	0.05115769561959738	0.05438285723466317	0.01454442109731186	0.002781760858769453	0.04508055269719714	0.1254331215241827	0.07675411621800236	0.1501659893830083	0.08051150926722855	0.03299574152435675	0.09210869075385772
0.88	0.6128177397093406	-0.001406246568238158	0.03906888256462205	0.04288143351885097	0.07313953342539629	0.04910456605109258	0.05578766865590271	0.01543664675010276	0.003580557651172679	0.04697572803292418	0.1341638871009087	0.0789711828268284	0.1527089518564059	0.08497296094957153	0.03698651170258774	0.09479505377546173
0.89	0.6016477765054604	0.002772624993969487	0.04014642690759816	0.0421230218052543	0.08081410897600814	0.04710390205373143	0.05718074445580659	0.01639887341491925	0.004549923504654727	0.04937330358863945	0.1429057116809191	0.08096061735805592	0.1552571321124157	0.08932826151508323	0.04112863434896809	0.09834090540366257
0.9	0.5878487106995687	0.007819899988584277	0.04083693418015854	0.04163222919266787	0.0888933972769294	0.04515727652126012	0.05853904762414545	0.01742332566379205	0.005667401094065819	0.05222499775246104	0.1515866071474513	0.08270741606187439	0.1577759526458724	0.09353476495593969	0.04538807986805386	0.1027715436716049
0.91	0.5715340829680621	0.01371515646001611	0.04115962286436271	0.0413941293116765	0.09730332436634394	0.04326626880326442	0.05983961686537943	0.01850172692510093	0.006910105462949707	0.05547888652640039	0.1601316952046478	0.08419821130722729	0.1602282685386928	0.09755028597142801	0.04972802734294748	0.1081011822654491
0.92	0.5528508661710573	0.0204301093947783	0.04113973151302428	0.04139123878792061	0.1059626391602923	0.04143247158668633	0.06105995994824799	0.01962527600099049	0.008254917524266858	0.05908012910677622	0.1684641979890343	0.08542137932800578	0.1625751403347733	0.1013337264198029	0.05410924783537667	0.1143326017854933
0.93	0.53197706643543	0.0279283653338998	0.04080832982460453	0.04160382758530749	0.1147837722657148	0.03965751895266019	0.06217843617991436	0.02078462623163533	0.00967866714460941	0.06297169245335694	0.1765065348655094	0.08636715247190274	0.1647766286906157	0.1048456947600736	0.05849054250623172	0.121456923293258
0.9399999999999999	0.5091185645118768	0.03616524144496333	0.04020211734921911	0.04201025037148891	0.1236738534118288	0.03794313656107001	0.06317462097980245	0.02196987209769561	0.01115830626862065	0.0670950664608953	0.1841815097827683	0.08702773656435245	0.1667925889638696	0.1080491052651319	0.06282923230411254	0.129453499583961
0.95	0.4845053097934948	0.04508766545596964	0.03936320612031431	0.04258729570673738	0.1325358798911744	0.03629121395838576	0.0640296454962035	0.02317054805718551	0.01267107292585109	0.07139096184333736	0.1914135687464969	0.08739743315087045	0.1685834454210321	0.1109097431036956	0.06708169470873088	0.1382899215114202
0.96	0.4583870085980193	0.05463417350623315	0.03833888232094882	0.0433105487027626	0.1412700230225393	0.03470389854362655	0.06472650339386951	0.02437564423888806	0.01419464732186479	0.07579998383942217	0.1981301017495452	0.0874727648485506	0.1701109276549482	0.1133967823199832	0.07120394151076367	0.1479221405065705
0.97	0.4310284629724145	0.06473502313602744	0.03718134105181713	0.04415476156641207	0.1497750537417903	0.03318371071251199	0.06525031634019927	0.02557364325816076	0.01570730157429438	0.08026327609748639	0.2042627580079244	0.08725259992543112	0.1713387562161078	0.1154832466458893	0.07515222993718458	0.1582947130889068
